<svg xmlns="http://www.w3.org/2000/svg" version="1.1" xmlns:xlink="http://www.w3.org/1999/xlink" xmlns:svgjs="http://svgjs.dev/svgjs" width="128" height="128" viewBox="0 0 128 128"><g transform="matrix(0.8046875,0,0,0.8046875,12.760752631578946,15.001682276956423)"><svg viewBox="0 0 95 91" data-background-color="#ffffff" preserveAspectRatio="xMidYMid meet" height="122" width="128" xmlns="http://www.w3.org/2000/svg" xmlns:xlink="http://www.w3.org/1999/xlink"><g id="tight-bounds" transform="matrix(1,0,0,1,-0.24049999999999727,-0.08121877781222508)"><svg viewBox="0 0 95.481 91.16243755562444" height="91.16243755562444" width="95.481"><g><svg viewBox="0 0 95.481 91.16243755562444" height="91.16243755562444" width="95.481"><g><svg viewBox="0 0 95.481 91.16243755562444" height="91.16243755562444" width="95.481"><g id="textblocktransform"><svg viewBox="0 0 95.481 91.16243755562444" height="91.16243755562444" width="95.481" id="textblock"><g><svg viewBox="0 0 95.481 91.16243755562444" height="91.16243755562444" width="95.481"><g><svg viewBox="0 0 95.481 91.16243755562444" height="91.16243755562444" width="95.481"><g><svg xmlns="http://www.w3.org/2000/svg" xmlns:xlink="http://www.w3.org/1999/xlink" version="1.1" x="0" y="0" viewBox="0 2.261 100.001 95.47800000000001" enable-background="new 0 0 100 100" xml:space="preserve" width="95.481" height="91.16243755562444" class="icon-icon-0" data-fill-palette-color="accent" id="icon-0"><g fill="#1c848e" data-fill-palette-color="accent"><path d="M58.585 35.762l6.475 0.398-6.037 2.381C58.925 37.599 58.778 36.672 58.585 35.762zM57.405 31.785l6.455-0.619-5.587 3.293C58.03 33.548 57.74 32.655 57.405 31.785zM55.613 28.042l6.282-1.622-5.004 4.127C56.51 29.688 56.082 28.852 55.613 28.042zM53.269 24.641l13.869-7.226-11.932 9.95C54.617 26.415 53.97 25.505 53.269 24.641zM49.974 21.247L72.151 2.261 52.765 24.038C51.904 23.04 50.972 22.107 49.974 21.247zM46.745 18.867L58.179 5.559 49.489 20.84C48.619 20.126 47.703 19.466 46.745 18.867zM43.464 17.119l6.289-9.331-3.784 10.609C45.16 17.929 44.323 17.502 43.464 17.119zM39.552 15.738l4.006-7.816-1.331 8.684C41.356 16.271 40.464 15.98 39.552 15.738zM35.471 14.989l2.381-6.038 0.397 6.475C37.34 15.233 36.413 15.086 35.471 14.989zM31.323 14.886l1.408-6.337 1.407 6.337c-0.466-0.024-0.936-0.037-1.407-0.037C32.259 14.849 31.79 14.862 31.323 14.886zM27.212 15.426l0.398-6.475 2.381 6.038C29.05 15.086 28.122 15.233 27.212 15.426zM23.235 16.606l-0.619-6.455 3.294 5.587C24.999 15.98 24.106 16.271 23.235 16.606zM19.493 18.398l-1.621-6.282 4.127 5.003C21.138 17.502 20.302 17.929 19.493 18.398zM16.078 20.754L13.492 14.8l4.861 4.298C17.565 19.61 16.806 20.163 16.078 20.754zM13.073 23.612l-3.486-5.477 5.477 3.486C14.365 22.25 13.7 22.914 13.073 23.612zM10.549 26.903l-4.298-4.862 5.954 2.586C11.614 25.355 11.062 26.114 10.549 26.903zM8.57 30.547L3.567 26.42l6.281 1.622C9.38 28.852 8.952 29.688 8.57 30.547zM7.188 34.459l-5.586-3.294 6.455 0.619C7.722 32.655 7.432 33.547 7.188 34.459zM6.44 38.541L0.403 36.16l6.475-0.399C6.685 36.671 6.538 37.599 6.44 38.541zM6.337 42.688L0 41.28l6.337-1.408C6.312 40.339 6.3 40.808 6.3 41.28S6.312 42.222 6.337 42.688zM6.878 46.799L0.403 46.4 6.44 44.02C6.538 44.961 6.685 45.889 6.878 46.799zM8.058 50.775l-6.456 0.619 5.587-3.294C7.432 49.013 7.722 49.905 8.058 50.775zM9.849 54.518L3.567 56.14l5.003-4.127C8.952 52.873 9.38 53.709 9.849 54.518zM9.483 56.862l1.065-1.205c0.089 0.138 0.18 0.274 0.271 0.409C10.36 56.311 9.914 56.576 9.483 56.862z" fill="#ffffff" data-fill-palette-color="accent"></path><path d="M9.914 41.28c0-12.602 10.216-22.817 22.817-22.817 12.439 0 22.553 9.954 22.812 22.331-2.644 1.213-5.014 2.919-6.989 5-1.877-0.574-3.867-0.882-5.926-0.882-7.799 0-14.562 4.409-17.942 10.868-2.015-0.961-4.27-1.5-6.648-1.5-1.288 0-2.539 0.158-3.735 0.455C11.543 50.963 9.914 46.312 9.914 41.28z" fill="#ffffff" data-fill-palette-color="accent"></path><path d="M83.893 59.657c1.524-0.798 3.259-1.249 5.099-1.249 6.08 0 11.009 4.928 11.009 11.009 0 1.729-0.398 3.364-1.108 4.821H79.091l-0.049-0.102-0.092 0.102H7.092c-0.571-1.389-0.887-2.909-0.887-4.503 0-6.534 5.298-11.832 11.832-11.832 3.284 0 6.255 1.338 8.399 3.498 1.699-7.371 8.305-12.867 16.191-12.867 2.516 0 4.9 0.559 7.037 1.559 3.462-4.687 9.025-7.727 15.299-7.727C74.882 42.367 83.026 49.964 83.893 59.657z" fill="#ffffff" data-fill-palette-color="accent"></path><path fill-rule="evenodd" clip-rule="evenodd" d="M52.361 78.836c0.342-1.14 3.561-5.177 3.615-5.177 0.02 0 0.853 4.037 0.511 5.177-0.342 1.139-1.543 2.062-2.682 2.062C52.666 80.898 52.02 79.975 52.361 78.836z" fill="#ffffff" data-fill-palette-color="accent"></path><path fill-rule="evenodd" clip-rule="evenodd" d="M57.251 84.268c0.342-1.139 3.561-5.176 3.615-5.176 0.02 0 0.852 4.037 0.51 5.176-0.342 1.14-1.543 2.063-2.682 2.063S56.909 85.407 57.251 84.268z" fill="#ffffff" data-fill-palette-color="accent"></path><path fill-rule="evenodd" clip-rule="evenodd" d="M65.399 78.836c0.342-1.14 3.561-5.177 3.615-5.177 0.02 0 0.852 4.037 0.51 5.177-0.342 1.139-1.542 2.062-2.682 2.062C65.704 80.898 65.058 79.975 65.399 78.836z" fill="#ffffff" data-fill-palette-color="accent"></path><path fill-rule="evenodd" clip-rule="evenodd" d="M70.288 84.268c0.342-1.139 3.561-5.176 3.616-5.176 0.02 0 0.852 4.037 0.51 5.176-0.342 1.14-1.542 2.063-2.682 2.063S69.946 85.407 70.288 84.268z" fill="#ffffff" data-fill-palette-color="accent"></path><path fill-rule="evenodd" clip-rule="evenodd" d="M78.438 78.836c0.342-1.14 3.561-5.177 3.616-5.177 0.02 0 0.852 4.037 0.51 5.177-0.342 1.139-1.543 2.062-2.682 2.062C78.742 80.898 78.096 79.975 78.438 78.836z" fill="#ffffff" data-fill-palette-color="accent"></path><path fill-rule="evenodd" clip-rule="evenodd" d="M83.327 84.268c0.342-1.139 3.561-5.176 3.615-5.176 0.02 0 0.852 4.037 0.51 5.176-0.342 1.14-1.542 2.063-2.682 2.063C83.632 86.331 82.985 85.407 83.327 84.268z" fill="#ffffff" data-fill-palette-color="accent"></path><path fill-rule="evenodd" clip-rule="evenodd" d="M91.476 78.836c0.342-1.14 3.561-5.177 3.615-5.177 0.02 0 0.852 4.037 0.511 5.177-0.342 1.139-1.542 2.062-2.682 2.062S91.134 79.975 91.476 78.836z" fill="#ffffff" data-fill-palette-color="accent"></path><path fill-rule="evenodd" clip-rule="evenodd" d="M53.828 95.676c0.342-1.139 3.561-5.176 3.616-5.176 0.019 0 0.851 4.037 0.51 5.176-0.342 1.141-1.543 2.063-2.682 2.063C54.133 97.739 53.486 96.816 53.828 95.676z" fill="#ffffff" data-fill-palette-color="accent"></path><path fill-rule="evenodd" clip-rule="evenodd" d="M61.978 90.244c0.342-1.14 3.561-5.176 3.615-5.176 0.02 0 0.852 4.036 0.51 5.176-0.342 1.139-1.543 2.062-2.682 2.062S61.635 91.383 61.978 90.244z" fill="#ffffff" data-fill-palette-color="accent"></path><path fill-rule="evenodd" clip-rule="evenodd" d="M66.866 95.676c0.342-1.139 3.561-5.176 3.615-5.176 0.02 0 0.852 4.037 0.51 5.176-0.342 1.141-1.542 2.063-2.682 2.063C67.171 97.739 66.524 96.816 66.866 95.676z" fill="#ffffff" data-fill-palette-color="accent"></path><path fill-rule="evenodd" clip-rule="evenodd" d="M75.015 90.244c0.342-1.14 3.561-5.176 3.616-5.176 0.02 0 0.852 4.036 0.51 5.176-0.342 1.139-1.542 2.062-2.682 2.062S74.673 91.383 75.015 90.244z" fill="#ffffff" data-fill-palette-color="accent"></path><path fill-rule="evenodd" clip-rule="evenodd" d="M79.904 95.676c0.342-1.139 3.561-5.176 3.616-5.176 0.02 0 0.852 4.037 0.51 5.176-0.342 1.141-1.543 2.063-2.682 2.063C80.209 97.739 79.562 96.816 79.904 95.676z" fill="#ffffff" data-fill-palette-color="accent"></path><path fill-rule="evenodd" clip-rule="evenodd" d="M88.054 90.244c0.342-1.14 3.561-5.176 3.615-5.176 0.02 0 0.852 4.036 0.51 5.176-0.342 1.139-1.543 2.062-2.682 2.062S87.712 91.383 88.054 90.244z" fill="#ffffff" data-fill-palette-color="accent"></path><path fill-rule="evenodd" clip-rule="evenodd" d="M95.223 42.765l-1.945-0.343 1.55-1.085c0.619-0.434 0.77-1.287 0.336-1.906l-0.072-0.103c-0.434-0.619-1.287-0.77-1.906-0.336l-3.995 2.797-3.624-0.639 2.555-2.836 4.871-0.255c0.754-0.04 1.334-0.684 1.295-1.438l-0.007-0.125c-0.04-0.755-0.684-1.335-1.438-1.295l-1.889 0.099 1.322-1.468c0.506-0.562 0.46-1.427-0.102-1.933l-0.094-0.083c0 0 0 0 0 0l-0.064-0.058c-0.561-0.506-1.427-0.461-1.933 0.101l-1.351 1.5-0.105-2.012c-0.039-0.755-0.684-1.334-1.438-1.295l-0.125 0.006c-0.756 0.04-1.336 0.684-1.296 1.438l0.255 4.871-2.855 3.17-1.598-3.956 1.906-4.489c0.295-0.696-0.029-1.5-0.726-1.795l-0.115-0.049c-0.696-0.295-1.499 0.029-1.795 0.725l-0.787 1.854-0.756-1.871c-0.283-0.701-1.081-1.04-1.782-0.756l-0.115 0.047c-0.001 0-0.001 0-0.001 0l-0.08 0.033c-0.701 0.283-1.04 1.081-0.757 1.782l0.74 1.832-1.74-0.739c-0.696-0.295-1.5 0.029-1.795 0.725l-0.049 0.115c-0.296 0.696 0.029 1.5 0.725 1.794l4.489 1.906 1.43 3.539-4.044-0.713-2.797-3.995c-0.434-0.62-1.288-0.77-1.907-0.336l-0.103 0.072c-0.619 0.434-0.77 1.287-0.336 1.906l1.155 1.65-1.987-0.351c-0.744-0.131-1.455 0.366-1.586 1.11L68.735 39.7c0 0.001 0 0.001 0 0.001l-0.016 0.085c-0.131 0.744 0.366 1.454 1.111 1.585l1.945 0.343-1.55 1.085c-0.619 0.434-0.77 1.287-0.336 1.906l0.071 0.103c0.434 0.619 1.287 0.77 1.906 0.336l3.996-2.797 4.119 0.727-2.707 3.005-4.87 0.255c-0.755 0.04-1.335 0.684-1.296 1.438l0.007 0.125c0.04 0.755 0.684 1.335 1.438 1.295l1.889-0.099-1.322 1.468c-0.506 0.562-0.46 1.427 0.102 1.933l0.094 0.084c0.561 0.506 1.427 0.46 1.933-0.102l1.409-1.564 0.111 2.134c0.039 0.755 0.684 1.335 1.438 1.296l0.125-0.008c0.755-0.039 1.335-0.684 1.296-1.438l-0.256-4.871 2.855-3.171 1.599 3.957-1.905 4.49c-0.296 0.695 0.029 1.499 0.725 1.795l0.115 0.049c0.695 0.295 1.5-0.029 1.795-0.726l0.835-1.968 0.788 1.952c0.283 0.7 1.082 1.04 1.783 0.757l0.115-0.047c0.701-0.283 1.039-1.082 0.756-1.782l-0.74-1.832 1.742 0.739c0.695 0.295 1.499-0.029 1.795-0.725l0.049-0.115c0.295-0.696-0.029-1.5-0.726-1.795l-4.489-1.906-1.516-3.75 3.785 0.667 2.798 3.995c0.434 0.619 1.287 0.77 1.906 0.336l0.103-0.072c0.619-0.434 0.77-1.287 0.336-1.907l-1.226-1.751 2.073 0.366c0.744 0.131 1.454-0.366 1.586-1.11l0.021-0.123C96.464 43.606 95.968 42.896 95.223 42.765z" fill="#ffffff" data-fill-palette-color="accent"></path></g></svg></g></svg></g></svg></g></svg></g></svg></g><g></g></svg></g><defs></defs></svg><rect width="95.481" height="91.16243755562444" fill="none" stroke="none" visibility="hidden"></rect></g></svg></g></svg>